<?xml version="1.0" encoding="UTF-8" standalone="no"?>
<!-- Created with Inkscape (http://www.inkscape.org/) -->

<svg
   width="1920"
   height="1080"
   viewBox="0 0 1920 1080"
   version="1.1"
   id="svg5"
   inkscape:version="1.2.1 (9c6d41e410, 2022-07-14)"
   sodipodi:docname="Pacific Trails Logo.svg"
   inkscape:export-filename="Pacific Trails Logo.png"
   inkscape:export-xdpi="78"
   inkscape:export-ydpi="78"
   xmlns:inkscape="http://www.inkscape.org/namespaces/inkscape"
   xmlns:sodipodi="http://sodipodi.sourceforge.net/DTD/sodipodi-0.dtd"
   xmlns:xlink="http://www.w3.org/1999/xlink"
   xmlns="http://www.w3.org/2000/svg"
   xmlns:svg="http://www.w3.org/2000/svg">
  <sodipodi:namedview
     id="namedview7"
     pagecolor="#ffffff"
     bordercolor="#000000"
     borderopacity="0.25"
     inkscape:showpageshadow="2"
     inkscape:pageopacity="0.0"
     inkscape:pagecheckerboard="0"
     inkscape:deskcolor="#d1d1d1"
     inkscape:document-units="px"
     showgrid="false"
     inkscape:zoom="0.48245307"
     inkscape:cx="1552.4826"
     inkscape:cy="465.33024"
     inkscape:window-width="1920"
     inkscape:window-height="991"
     inkscape:window-x="-9"
     inkscape:window-y="-9"
     inkscape:window-maximized="1"
     inkscape:current-layer="layer1"
     showguides="true">
    <inkscape:grid
       type="xygrid"
       id="grid804" />
  </sodipodi:namedview>
  <defs
     id="defs2">
    <rect
       x="325.37405"
       y="707.9084"
       width="918.96183"
       height="165.61832"
       id="rect2315" />
    <linearGradient
       id="linearGradient1018"
       inkscape:swatch="solid">
      <stop
         style="stop-color:#000000;stop-opacity:1;"
         offset="0"
         id="stop1016" />
    </linearGradient>
  </defs>
  <g
     inkscape:label="Layer 1"
     inkscape:groupmode="layer"
     id="layer1">
    <g
       id="g678"
       transform="translate(-265.67643,159.03184)">
      <use
         x="0"
         y="0"
         xlink:href="#g587"
         id="use629"
         transform="translate(-236.17329,61.089771)"
         style="display:inline" />
      <text
         xml:space="preserve"
         id="text2313"
         style="white-space:pre;shape-inside:url(#rect2315);display:inline;fill:#008000;stroke-width:10;stroke-dasharray:none" />
      <path
         id="path2657"
         style="display:inline;fill:#ff0000;fill-rule:evenodd;stroke-width:1.03889"
         sodipodi:type="inkscape:offset"
         inkscape:radius="0"
         inkscape:original="M 634.61719 -296.06055 L 474.86133 -296.05469 A 159.75572 179.54199 0 0 0 634.61914 -116.51953 A 159.75572 179.54199 0 0 0 794.37109 -296.06055 L 634.61719 -296.06055 z "
         d="m 634.61719,-296.06055 -159.75586,0.006 a 159.75572,179.54199 0 0 0 159.75781,179.53516 159.75572,179.54199 0 0 0 159.75195,-179.54102 z"
         transform="matrix(1,0,0,-1,612.21475,124.89548)" />
      <g
         id="g587"
         transform="matrix(0.3265995,0,0,0.51811686,1180.2387,-19.714131)"
         style="display:inline">
        <path
           style="display:inline;fill:#008000;stroke-width:40"
           d="m 420.90503,595.73348 c 11.88589,-2.58934 18.81361,-11.52533 27.84733,-19.05343 3.97961,-3.31634 5.42883,-4.18007 8.79389,-5.8626 3.79288,-1.89643 22.98722,-25.91851 26.38168,-29.31298 2.212,-2.212 4.78269,-4.04434 7.32825,-5.86259 0.88894,-0.63496 2.24886,-0.61261 2.93129,-1.46565 1.36488,-1.70609 1.58993,-4.13797 2.9313,-5.8626 2.1209,-2.72687 5.20735,-4.60137 7.32825,-7.32824 2.28427,-2.93693 2.07265,-7.35418 4.39694,-10.25954 1.1004,-1.37549 3.29655,-1.55581 4.39695,-2.9313 1.93022,-2.41277 1.71414,-5.95386 2.9313,-8.79389 0.9771,-1.9542 1.9542,-3.9084 2.93129,-5.8626 0.48855,0 1.1202,0.34546 1.46565,0 2.0945,-2.0945 1.89572,-9.13622 2.9313,-11.72519 0.6542,-1.6355 2.37427,-2.72585 2.9313,-4.39694 0.63699,-1.91098 -0.54869,-5.8626 1.46565,-5.8626 0.48855,0 0,0.9771 0,1.46565 0,1.9542 0,3.9084 0,5.86259 0,16.87243 -0.65546,-5.39839 1.46565,7.32825 1.08631,6.51787 -1.60093,14.11537 0,20.51908 1.03352,4.13411 1.97216,2.5326 2.93129,7.32825 0.83578,4.17887 3.36363,7.59191 4.39695,11.72519 0.11849,0.47396 0,0.9771 0,1.46565 0.48855,2.93129 0.52591,5.97466 1.46565,8.79389 0.89309,2.67926 4.79167,9.22636 5.8626,11.72519 1.05792,2.46848 2.86695,11.66085 4.39694,13.19084 0.77247,0.77246 2.15883,0.69318 2.9313,1.46565 1.97769,1.97769 2.29797,5.22926 4.39695,7.32824 1.46564,1.46565 2.7784,3.10212 4.39694,4.39695 0.85305,0.68243 2.32533,0.55669 2.9313,1.46565 0.542,0.81299 -0.542,2.1183 0,2.9313 0.091,4.12688 3.30452,0.37321 4.39695,1.46564 0.55206,0.55207 3.62647,6.17254 4.39694,7.32825 3.42282,5.13422 6.82974,4.75589 10.25955,7.32824 0.87394,0.65546 0.6126,2.24886 1.46564,2.9313 14.65649,11.72519 0,-2.19847 8.7939,4.39695 1.65819,1.24364 2.43057,3.74149 4.39694,4.39694 1.39044,0.46348 3.36058,-1.03637 4.39695,0 3.46053,3.46054 -8.17496,-0.77079 2.9313,2.9313 0.46348,0.15449 1.46565,0.48855 1.46565,0 0,-1.34897 -6.42251,2.9313 -7.32825,2.9313 -3.15833,0 -4.91541,1.72488 -7.32824,2.9313 -0.79319,0.39659 -19.46968,0.3498 -20.51909,0 -1.09671,-0.36558 -7.31432,-1.45173 -7.32824,-1.46565 -0.34546,-0.34546 0.4065,-1.19465 0,-1.46565 -1.93036,-1.28691 -5.39643,-1.96539 -7.32824,-2.9313 -0.9771,-0.48855 -0.48855,-2.44275 -1.46565,-2.9313 -0.87395,-0.43697 -2.05736,0.43698 -2.9313,0 -0.9771,-0.48855 -0.69318,-2.15883 -1.46565,-2.93129 -1.53035,-1.53036 -4.91431,-1.98302 -5.86259,-2.9313 -0.34546,-0.34546 0.43697,-1.24716 0,-1.46565 -0.87395,-0.43697 -2.05736,0.43697 -2.9313,0 -0.43697,-0.21849 0.34545,-1.12019 0,-1.46565 -0.77247,-0.77246 -2.02234,-0.85968 -2.9313,-1.46565 -2.06111,0.98874 -1.28887,-2.75452 -1.46565,-2.9313 -1.81917,-1.81916 -4.77625,-0.3793 -5.86259,-1.46564 -0.34546,-0.34546 0.34545,-1.1202 0,-1.46565 -0.34546,-0.34546 -1.46565,-0.48855 -1.46565,0 0,1.28064 4.86094,-1.46565 0,-1.46565 -0.48855,0 0,0.9771 0,1.46565 0,4.60451 1.8526,7.4104 2.93129,11.72519 0.71906,2.8762 0.0681,8.11216 2.9313,10.25954 1.23595,0.92696 3.30452,0.37322 4.39695,1.46565 0.69091,0.69091 -0.43697,2.05735 0,2.9313 2.62618,5.25235 17.68976,10.73656 21.98473,13.19084 1.19976,0.68557 1.78155,2.16479 2.9313,2.93129 1.21949,0.813 3.00651,-0.46348 4.39695,0 0.89443,0.29815 3.50251,2.63316 4.39694,2.9313 1.91097,0.63699 3.95163,0.82866 5.8626,1.46565 1.67109,0.55703 2.68805,2.50407 4.39694,2.9313 1.42189,0.35547 2.95976,-0.28744 4.39695,0 2.41232,0.48246 6.50656,3.53919 8.79389,4.39694 11.38218,4.26832 8.02741,1.01923 17.58779,2.9313 3.48194,0.69639 4.03284,4.39695 10.25954,4.39695 3.66078,0 7.32825,1.56154 7.32825,1.46565 0,-1.09243 -1.89493,1.12019 -2.9313,1.46565 -2.98808,0.99602 -7.27146,0.46962 -10.25954,1.46564 -1.6711,0.55704 -2.76145,2.2771 -4.39695,2.9313 -8.96177,3.58471 -18.65668,4.02447 -27.84733,5.8626 -13.93953,2.7879 -35.42013,7.16521 -48.36641,-1.46565 -3.36713,-2.24476 0.62847,-0.83718 -2.9313,-4.39695 -0.22857,-0.22857 -4.16837,-2.70273 -4.39694,-2.9313 -0.69092,-0.69091 0.69091,-2.24038 0,-2.93129 -0.77247,-0.77247 -2.15884,-0.69319 -2.9313,-1.46565 -0.69092,-0.69092 0.9771,-2.9313 0,-2.9313 -1.08275,0 7.38364,7.61869 8.79389,8.79389 6.90561,5.75468 14.02078,13.60581 21.98473,17.58779 3.95808,1.97904 6.23628,5.31661 10.25955,7.32824 9.63713,4.81857 -0.80018,-1.27551 8.79389,1.46565 5.12185,1.46339 9.60156,5.64327 14.65649,7.32825 0.92695,0.30898 1.9542,0 2.93129,0 1.46565,0.48855 2.97694,0.85707 4.39695,1.46565 2.0082,0.86065 3.74297,2.40139 5.8626,2.93129 1.51993,0.37999 8.26463,-0.28498 10.25954,0 5.0088,0.71555 8.3778,3.43434 13.19084,4.39695 5.46947,1.09389 10.42167,1.46565 16.12214,1.46565 2.63984,0 14.35108,1.77105 16.12213,0 0.68001,-0.68001 0.54797,-3.73675 -1.46565,-2.9313 -7.88612,3.15445 -14.66785,9.00977 -21.98473,13.19084 -4.94674,2.82671 -9.91595,5.63353 -14.65649,8.79389 -1.14975,0.7665 -1.69535,2.31333 -2.93129,2.9313 -0.87395,0.43697 -2.00434,-0.30898 -2.9313,0 -3.22511,1.07504 -6.39455,3.84481 -10.25954,4.39695 -9.28671,1.32667 -19.95122,0 -29.31298,0 -5.81553,0 -21.78262,1.53302 -26.38168,0 -0.65546,-0.21849 -0.84768,-1.15666 -1.46565,-1.46565 -1.17252,-0.58626 -3.22443,0.58626 -4.39695,0 -0.61797,-0.30899 -0.81019,-1.24716 -1.46564,-1.46565 -0.92696,-0.30899 -2.11831,0.542 -2.9313,0 -0.90896,-0.60597 -0.69319,-2.15883 -1.46565,-2.9313 -2.68071,-2.68071 -10.20393,-5.83479 -13.19084,-7.32824 -1.85392,-0.92696 -2.67232,-3.2472 -4.39695,-4.39695 -0.4065,-0.271 -1.12019,0.34546 -1.46565,0 -0.90045,-0.90045 -0.96827,-3.41543 -2.93129,-4.39694 -0.43698,-0.21849 -1.1202,0.34545 -1.46565,0 -0.34546,-0.34546 0.21848,-1.02868 0,-1.46565 -0.82987,-1.65975 -4.30831,-4.8264 -5.8626,-5.8626 -0.94593,-0.63062 -5.22784,-2.29654 -5.86259,-2.9313 -0.6514,-0.6514 1.13995,-2.76844 -1.46565,-1.46565 -0.61797,0.30899 -0.9771,0.9771 -1.46565,1.46565 -1.46565,0 -2.97506,-0.35547 -4.39695,0 -2.82724,0.70681 -6.08456,5.97358 -8.79389,7.32825 -0.43697,0.21848 -1.12019,-0.34546 -1.46565,0 -0.77246,0.77246 -0.55669,2.32532 -1.46565,2.9313 -0.81299,0.54199 -2.00434,-0.30899 -2.9313,0 -1.92868,0.64289 -3.96804,3.58499 -5.86259,4.39694 -2.84003,1.21716 -5.95387,1.71414 -8.79389,2.9313 -5.02051,2.15165 -9.47464,5.60096 -14.65649,7.32824 -3.06057,1.02019 -7.38789,1.49547 -10.25955,2.9313 -0.61797,0.30899 -0.78815,1.33015 -1.46564,1.46565 -1.91625,0.38325 -3.92804,-0.27636 -5.8626,0 -3.72927,0.53275 -7.9865,2.30818 -11.72519,2.9313 -5.94193,0.99032 -23.11381,1.18338 -27.84733,0 -1.05981,-0.26496 -1.85373,-1.28606 -2.9313,-1.46565 -5.32885,-0.88814 -10.08583,0.81968 -14.65648,-1.46565 -0.61798,-0.30899 -0.84768,-1.15666 -1.46565,-1.46565 -2.93395,-1.46697 -10.99071,2.20014 -13.19084,0 -2.23742,-2.23741 2.07388,-3.00311 4.39694,-4.39694 2.36982,-1.42189 3.49279,-4.44071 5.8626,-5.8626 3.59315,-2.15589 9.44471,-3.98953 13.19084,-5.8626 3.5535,-1.77675 9.4481,-4.92691 13.19084,-5.86259 1.42189,-0.35547 2.95976,0.28744 4.39694,0 36.8056,-7.36112 -7.93826,1.0118 16.12214,-5.8626 1.40926,-0.40264 2.95124,0.24095 4.39695,0 6.47734,-1.07955 31.31404,-10.79496 35.17557,-14.65649 0.61417,-0.61417 1.02151,-3.50867 1.46565,-4.39694 0.30899,-0.61797 1.46565,-0.77474 1.46565,-1.46565 0,-1.54493 -3.30452,0.37322 -4.39695,1.46565 -0.34545,0.34546 0.46348,1.31115 0,1.46565 -1.39043,0.46348 -3.0498,-0.57735 -4.39694,0 -2.24524,0.96224 -3.57538,3.53924 -5.8626,4.39694 -1.82977,0.68617 -3.96674,-0.47396 -5.8626,0 -4.66799,1.167 -8.56431,4.54074 -13.19083,5.8626 -2.44304,0.69801 -6.51606,-1.13892 -8.7939,0 -7.69443,3.84722 -17.90648,-0.65315 -26.38168,1.46565 -0.67028,0.16757 -0.81019,1.24716 -1.46565,1.46565 -1.131,0.377 -19.27205,0.62351 -20.51908,0 -0.43697,-0.21849 0.34546,-1.1202 0,-1.46565 -1.03637,-1.03637 -2.97506,0.35547 -4.39695,0 -9.87223,-2.46806 -0.0226,-0.0226 -2.93129,-2.9313 -0.84949,-0.84949 -5.01311,-2.08181 -5.8626,-2.9313 -0.52924,-0.52924 2.42163,-3.22884 4.39695,-5.86259 4.40474,-5.87299 19.80599,-8.06765 26.38168,-10.25954 10.25253,-3.41752 22.27053,-7.45073 32.24427,-11.7252 5.98631,-2.56556 11.60192,-5.83177 17.58779,-7.32824 4.15903,-1.03976 8.21562,-5.57346 11.72519,-7.32824 6.09968,-3.04984 -1.56683,0.10118 1.46565,-2.9313 2.26902,-2.26902 6.1876,-3.90631 7.32824,-7.32825 0.30899,-0.92695 -0.43697,-2.05735 0,-2.93129 1.23594,-2.47189 4.3296,-3.5631 5.8626,-5.8626 0.27099,-0.4065 -0.34546,-1.12019 0,-1.46565 0.34545,-0.34545 1.12019,0.34546 1.46565,0 1.03637,-1.03637 0.65545,-3.08603 0,-4.39694 -1.17659,-2.35317 -4.8855,1.95419 -7.32825,2.93129 -1.65297,0.66119 -4.28514,-0.78872 -5.86259,0 -3.69167,1.84584 -7.24104,1.46565 -11.7252,1.46565 -4.72217,0 -8.49517,0.68304 -13.19083,1.46565 -10.72065,1.78677 -23.004,0 -33.70993,0 -4.33383,0 -11.72519,1.51579 -11.72519,1.46565 0,-4.51181 7.38727,-6.49607 10.25954,-8.79389 2.72241,-2.17793 9.23872,-7.77307 11.72519,-10.25955 0.77247,-0.77246 0.59171,-2.27583 1.46565,-2.93129 1.23595,-0.92696 3.16101,-0.53869 4.39695,-1.46565 0.87394,-0.65546 0.48855,-2.44275 1.46565,-2.9313 2.22813,-1.11406 5.36187,0.0637 7.32824,-1.46565 2.78088,-2.1629 3.0295,-6.69986 5.8626,-8.79389 0.61218,-0.45249 25.48929,-15.89499 35.17557,-21.34351"
           id="path581" />
        <path
           style="fill:#008000;stroke-width:40"
           d="m 438.49282,545.90142 c 11.88589,-2.58934 18.81361,-11.52533 27.84733,-19.05343 3.97961,-3.31634 5.42883,-4.18007 8.79389,-5.8626 3.79288,-1.89643 22.98722,-25.91851 26.38168,-29.31298 2.212,-2.212 4.78269,-4.04434 7.32825,-5.86259 0.88894,-0.63496 2.24886,-0.61261 2.93129,-1.46565 1.36488,-1.70609 1.58993,-4.13797 2.9313,-5.8626 2.1209,-2.72687 5.20735,-4.60137 7.32825,-7.32824 2.28427,-2.93693 2.07265,-7.35418 4.39694,-10.25954 1.1004,-1.37549 3.29655,-1.55581 4.39695,-2.9313 1.93022,-2.41277 1.71414,-5.95386 2.9313,-8.79389 0.9771,-1.9542 1.9542,-3.9084 2.93129,-5.8626 0.48855,0 1.1202,0.34546 1.46565,0 2.0945,-2.0945 1.89572,-9.13622 2.9313,-11.72519 0.6542,-1.6355 2.37427,-2.72585 2.9313,-4.39694 0.63699,-1.91098 -0.54869,-5.8626 1.46565,-5.8626 0.48855,0 0,0.9771 0,1.46565 0,1.9542 0,3.9084 0,5.86259 0,16.87243 -0.65546,-5.39839 1.46565,7.32825 1.08631,6.51787 -1.60093,14.11537 0,20.51908 1.03352,4.13411 1.97216,2.5326 2.93129,7.32825 0.83578,4.17887 3.36363,7.59191 4.39695,11.72519 0.11849,0.47396 0,0.9771 0,1.46565 0.48855,2.93129 0.52591,5.97466 1.46565,8.79389 0.89309,2.67926 4.79167,9.22636 5.8626,11.72519 1.05792,2.46848 2.86695,11.66085 4.39694,13.19084 0.77247,0.77246 2.15883,0.69318 2.9313,1.46565 1.97769,1.97769 2.29797,5.22926 4.39695,7.32824 1.46564,1.46565 2.7784,3.10212 4.39694,4.39695 0.85305,0.68243 2.32533,0.55669 2.9313,1.46565 0.542,0.81299 -0.542,2.1183 0,2.9313 0.091,4.12688 3.30452,0.37321 4.39695,1.46564 0.55206,0.55207 3.62647,6.17254 4.39694,7.32825 3.42282,5.13422 6.82974,4.75589 10.25955,7.32824 0.87394,0.65546 0.6126,2.24886 1.46564,2.9313 14.65649,11.72519 0,-2.19847 8.7939,4.39695 1.65819,1.24364 2.43057,3.74149 4.39694,4.39694 1.39044,0.46348 3.36058,-1.03637 4.39695,0 3.46053,3.46054 -8.17496,-0.77079 2.9313,2.9313 0.46348,0.15449 1.46565,0.48855 1.46565,0 0,-1.34897 -6.42251,2.9313 -7.32825,2.9313 -3.15833,0 -4.91541,1.72488 -7.32824,2.9313 -0.79319,0.39659 -19.46968,0.3498 -20.51909,0 -1.09671,-0.36558 -7.31432,-1.45173 -7.32824,-1.46565 -0.34546,-0.34546 0.4065,-1.19465 0,-1.46565 -1.93036,-1.28691 -5.39643,-1.96539 -7.32824,-2.9313 -0.9771,-0.48855 -0.48855,-2.44275 -1.46565,-2.9313 -0.87395,-0.43697 -2.05736,0.43698 -2.9313,0 -0.9771,-0.48855 -0.69318,-2.15883 -1.46565,-2.93129 -1.53035,-1.53036 -4.91431,-1.98302 -5.86259,-2.9313 -0.34546,-0.34546 0.43697,-1.24716 0,-1.46565 -0.87395,-0.43697 -2.05736,0.43697 -2.9313,0 -0.43697,-0.21849 0.34545,-1.12019 0,-1.46565 -0.77247,-0.77246 -2.02234,-0.85968 -2.9313,-1.46565 -2.06111,0.98874 -1.28887,-2.75452 -1.46565,-2.9313 -1.81917,-1.81916 -4.77625,-0.3793 -5.86259,-1.46564 -0.34546,-0.34546 0.34545,-1.1202 0,-1.46565 -0.34546,-0.34546 -1.46565,-0.48855 -1.46565,0 0,1.28064 4.86094,-1.46565 0,-1.46565 -0.48855,0 0,0.9771 0,1.46565 0,4.60451 1.8526,7.4104 2.93129,11.72519 0.71906,2.8762 0.0681,8.11216 2.9313,10.25954 1.23595,0.92696 3.30452,0.37322 4.39695,1.46565 0.69091,0.69091 -0.43697,2.05735 0,2.9313 2.62618,5.25235 17.68976,10.73656 21.98473,13.19084 1.19976,0.68557 1.78155,2.16479 2.9313,2.93129 1.21949,0.813 3.00651,-0.46348 4.39695,0 0.89443,0.29815 3.50251,2.63316 4.39694,2.9313 1.91097,0.63699 3.95163,0.82866 5.8626,1.46565 1.67109,0.55703 2.68805,2.50407 4.39694,2.9313 1.42189,0.35547 2.95976,-0.28744 4.39695,0 2.41232,0.48246 6.50656,3.53919 8.79389,4.39694 11.38218,4.26832 8.02741,1.01923 17.58779,2.9313 3.48194,0.69639 4.03284,4.39695 10.25954,4.39695 3.66078,0 7.32825,1.56154 7.32825,1.46565 0,-1.09243 -1.89493,1.12019 -2.9313,1.46565 -2.98808,0.99602 -7.27146,0.46962 -10.25954,1.46564 -1.6711,0.55704 -2.76145,2.2771 -4.39695,2.9313 -8.96177,3.58471 -18.65668,4.02447 -27.84733,5.8626 -13.93953,2.7879 -35.42013,7.16521 -48.36641,-1.46565 -3.36713,-2.24476 0.62847,-0.83718 -2.9313,-4.39695 -0.22857,-0.22857 -4.16837,-2.70273 -4.39694,-2.9313 -0.69092,-0.69091 0.69091,-2.24038 0,-2.93129 -0.77247,-0.77247 -2.15884,-0.69319 -2.9313,-1.46565 -0.69092,-0.69092 0.9771,-2.9313 0,-2.9313 -1.08275,0 7.38364,7.61869 8.79389,8.79389 6.90561,5.75468 14.02078,13.60581 21.98473,17.58779 3.95808,1.97904 6.23628,5.31661 10.25955,7.32824 9.63713,4.81857 -0.80018,-1.27551 8.79389,1.46565 5.12185,1.46339 9.60156,5.64327 14.65649,7.32825 0.92695,0.30898 1.9542,0 2.93129,0 1.46565,0.48855 2.97694,0.85707 4.39695,1.46565 2.0082,0.86065 3.74297,2.40139 5.8626,2.93129 1.51993,0.37999 8.26463,-0.28498 10.25954,0 5.0088,0.71555 8.3778,3.43434 13.19084,4.39695 5.46947,1.09389 10.42167,1.46565 16.12214,1.46565 2.63984,0 14.35108,1.77105 16.12213,0 0.68001,-0.68001 0.54797,-3.73675 -1.46565,-2.9313 -7.88612,3.15445 -14.66785,9.00977 -21.98473,13.19084 -4.94674,2.82671 -9.91595,5.63353 -14.65649,8.79389 -1.14975,0.7665 -1.69535,2.31333 -2.93129,2.9313 -0.87395,0.43697 -2.00434,-0.30898 -2.9313,0 -3.22511,1.07504 -6.39455,3.84481 -10.25954,4.39695 -9.28671,1.32667 -19.95122,0 -29.31298,0 -5.81553,0 -21.78262,1.53302 -26.38168,0 -0.65546,-0.21849 -0.84768,-1.15666 -1.46565,-1.46565 -1.17252,-0.58626 -3.22443,0.58626 -4.39695,0 -0.61797,-0.30899 -0.81019,-1.24716 -1.46564,-1.46565 -0.92696,-0.30899 -2.11831,0.542 -2.9313,0 -0.90896,-0.60597 -0.69319,-2.15883 -1.46565,-2.9313 -2.68071,-2.68071 -10.20393,-5.83479 -13.19084,-7.32824 -1.85392,-0.92696 -2.67232,-3.2472 -4.39695,-4.39695 -0.4065,-0.271 -1.12019,0.34546 -1.46565,0 -0.90045,-0.90045 -0.96827,-3.41543 -2.93129,-4.39694 -0.43698,-0.21849 -1.1202,0.34545 -1.46565,0 -0.34546,-0.34546 0.21848,-1.02868 0,-1.46565 -0.82987,-1.65975 -4.30831,-4.8264 -5.8626,-5.8626 -0.94593,-0.63062 -5.22784,-2.29654 -5.86259,-2.9313 -0.6514,-0.6514 1.13995,-2.76844 -1.46565,-1.46565 -0.61797,0.30899 -0.9771,0.9771 -1.46565,1.46565 -1.46565,0 -2.97506,-0.35547 -4.39695,0 -2.82724,0.70681 -6.08456,5.97358 -8.79389,7.32825 -0.43697,0.21848 -1.12019,-0.34546 -1.46565,0 -0.77246,0.77246 -0.55669,2.32532 -1.46565,2.9313 -0.81299,0.54199 -2.00434,-0.30899 -2.9313,0 -1.92868,0.64289 -3.96804,3.58499 -5.86259,4.39694 -2.84003,1.21716 -5.95387,1.71414 -8.79389,2.9313 -5.02051,2.15165 -9.47464,5.60096 -14.65649,7.32824 -3.06057,1.02019 -7.38789,1.49547 -10.25955,2.9313 -0.61797,0.30899 -0.78815,1.33015 -1.46564,1.46565 -1.91625,0.38325 -3.92804,-0.27636 -5.8626,0 -3.72927,0.53275 -7.9865,2.30818 -11.72519,2.9313 -5.94193,0.99032 -23.11381,1.18338 -27.84733,0 -1.05981,-0.26496 -1.85373,-1.28606 -2.9313,-1.46565 -5.32885,-0.88814 -10.08583,0.81968 -14.65648,-1.46565 -0.61798,-0.30899 -0.84768,-1.15666 -1.46565,-1.46565 -2.93395,-1.46697 -10.99071,2.20014 -13.19084,0 -2.23742,-2.23741 2.07388,-3.00311 4.39694,-4.39694 2.36982,-1.42189 3.49279,-4.44071 5.8626,-5.8626 3.59315,-2.15589 9.44471,-3.98953 13.19084,-5.8626 3.5535,-1.77675 9.4481,-4.92691 13.19084,-5.86259 1.42189,-0.35547 2.95976,0.28744 4.39694,0 36.8056,-7.36112 -7.93826,1.0118 16.12214,-5.8626 1.40926,-0.40264 2.95124,0.24095 4.39695,0 6.47734,-1.07955 31.31404,-10.79496 35.17557,-14.65649 0.61417,-0.61417 1.02151,-3.50867 1.46565,-4.39694 0.30899,-0.61797 1.46565,-0.77474 1.46565,-1.46565 0,-1.54493 -3.30452,0.37322 -4.39695,1.46565 -0.34545,0.34546 0.46348,1.31115 0,1.46565 -1.39043,0.46348 -3.0498,-0.57735 -4.39694,0 -2.24524,0.96224 -3.57538,3.53924 -5.8626,4.39694 -1.82977,0.68617 -3.96674,-0.47396 -5.8626,0 -4.66799,1.167 -8.56431,4.54074 -13.19083,5.8626 -2.44304,0.69801 -6.51606,-1.13892 -8.7939,0 -7.69443,3.84722 -17.90648,-0.65315 -26.38168,1.46565 -0.67028,0.16757 -0.81019,1.24716 -1.46565,1.46565 -1.131,0.377 -19.27205,0.62351 -20.51908,0 -0.43697,-0.21849 0.34546,-1.1202 0,-1.46565 -1.03637,-1.03637 -2.97506,0.35547 -4.39695,0 -9.87223,-2.46806 -0.0226,-0.0226 -2.93129,-2.9313 -0.84949,-0.84949 -5.01311,-2.08181 -5.8626,-2.9313 -0.52924,-0.52924 2.42163,-3.22884 4.39695,-5.86259 4.40474,-5.87299 19.80599,-8.06765 26.38168,-10.25954 10.25253,-3.41752 22.27053,-7.45073 32.24427,-11.7252 5.98631,-2.56556 11.60192,-5.83177 17.58779,-7.32824 4.15903,-1.03976 8.21562,-5.57346 11.72519,-7.32824 6.09968,-3.04984 -1.56683,0.10118 1.46565,-2.9313 2.26902,-2.26902 6.1876,-3.90631 7.32824,-7.32825 0.30899,-0.92695 -0.43697,-2.05735 0,-2.93129 1.23594,-2.47189 4.3296,-3.5631 5.8626,-5.8626 0.27099,-0.4065 -0.34546,-1.12019 0,-1.46565 0.34545,-0.34545 1.12019,0.34546 1.46565,0 1.03637,-1.03637 0.65545,-3.08603 0,-4.39694 -1.17659,-2.35317 -4.8855,1.95419 -7.32825,2.93129 -1.65297,0.66119 -4.28514,-0.78872 -5.86259,0 -3.69167,1.84584 -7.24104,1.46565 -11.7252,1.46565 -4.72217,0 -8.49517,0.68304 -13.19083,1.46565 -10.72065,1.78677 -23.004,0 -33.70993,0 -4.33383,0 -11.72519,1.51579 -11.72519,1.46565 0,-4.51181 7.38727,-6.49607 10.25954,-8.79389 2.72241,-2.17793 9.23872,-7.77307 11.72519,-10.25955 0.77247,-0.77246 0.59171,-2.27583 1.46565,-2.93129 1.23595,-0.92696 3.16101,-0.53869 4.39695,-1.46565 0.87394,-0.65546 0.48855,-2.44275 1.46565,-2.9313 2.22813,-1.11406 5.36187,0.0637 7.32824,-1.46565 2.78088,-2.1629 3.0295,-6.69986 5.8626,-8.79389 0.61218,-0.45249 25.48929,-15.89499 35.17557,-21.34351"
           id="path583" />
      </g>
      <use
         x="0"
         y="0"
         xlink:href="#g587"
         id="use599"
         transform="translate(52.127662,48.86721)" />
      <g
         id="use601"
         transform="matrix(0.3265995,0,0,0.51811686,1104.1593,-37.821842)"
         style="display:inline">
        <path
           style="display:inline;fill:#008000;stroke-width:40"
           d="m 438.49282,545.90142 c 11.88589,-2.58934 18.81361,-11.52533 27.84733,-19.05343 3.97961,-3.31634 5.42883,-4.18007 8.79389,-5.8626 3.79288,-1.89643 22.98722,-25.91851 26.38168,-29.31298 2.212,-2.212 4.78269,-4.04434 7.32825,-5.86259 0.88894,-0.63496 2.24886,-0.61261 2.93129,-1.46565 1.36488,-1.70609 1.58993,-4.13797 2.9313,-5.8626 2.1209,-2.72687 5.20735,-4.60137 7.32825,-7.32824 2.28427,-2.93693 2.07265,-7.35418 4.39694,-10.25954 1.1004,-1.37549 3.29655,-1.55581 4.39695,-2.9313 1.93022,-2.41277 1.71414,-5.95386 2.9313,-8.79389 0.9771,-1.9542 1.9542,-3.9084 2.93129,-5.8626 0.48855,0 1.1202,0.34546 1.46565,0 2.0945,-2.0945 1.89572,-9.13622 2.9313,-11.72519 0.6542,-1.6355 2.37427,-2.72585 2.9313,-4.39694 0.63699,-1.91098 -0.54869,-5.8626 1.46565,-5.8626 0.48855,0 0,0.9771 0,1.46565 0,1.9542 0,3.9084 0,5.86259 0,16.87243 -0.65546,-5.39839 1.46565,7.32825 1.08631,6.51787 -1.60093,14.11537 0,20.51908 1.03352,4.13411 1.97216,2.5326 2.93129,7.32825 0.83578,4.17887 3.36363,7.59191 4.39695,11.72519 0.11849,0.47396 0,0.9771 0,1.46565 0.48855,2.93129 0.52591,5.97466 1.46565,8.79389 0.89309,2.67926 4.79167,9.22636 5.8626,11.72519 1.05792,2.46848 2.86695,11.66085 4.39694,13.19084 0.77247,0.77246 2.15883,0.69318 2.9313,1.46565 1.97769,1.97769 2.29797,5.22926 4.39695,7.32824 1.46564,1.46565 2.7784,3.10212 4.39694,4.39695 0.85305,0.68243 2.32533,0.55669 2.9313,1.46565 0.542,0.81299 -0.542,2.1183 0,2.9313 0.091,4.12688 3.30452,0.37321 4.39695,1.46564 0.55206,0.55207 3.62647,6.17254 4.39694,7.32825 3.42282,5.13422 6.82974,4.75589 10.25955,7.32824 0.87394,0.65546 0.6126,2.24886 1.46564,2.9313 14.65649,11.72519 0,-2.19847 8.7939,4.39695 1.65819,1.24364 2.43057,3.74149 4.39694,4.39694 1.39044,0.46348 3.36058,-1.03637 4.39695,0 3.46053,3.46054 -8.17496,-0.77079 2.9313,2.9313 0.46348,0.15449 1.46565,0.48855 1.46565,0 0,-1.34897 -6.42251,2.9313 -7.32825,2.9313 -3.15833,0 -4.91541,1.72488 -7.32824,2.9313 -0.79319,0.39659 -19.46968,0.3498 -20.51909,0 -1.09671,-0.36558 -7.31432,-1.45173 -7.32824,-1.46565 -0.34546,-0.34546 0.4065,-1.19465 0,-1.46565 -1.93036,-1.28691 -5.39643,-1.96539 -7.32824,-2.9313 -0.9771,-0.48855 -0.48855,-2.44275 -1.46565,-2.9313 -0.87395,-0.43697 -2.05736,0.43698 -2.9313,0 -0.9771,-0.48855 -0.69318,-2.15883 -1.46565,-2.93129 -1.53035,-1.53036 -4.91431,-1.98302 -5.86259,-2.9313 -0.34546,-0.34546 0.43697,-1.24716 0,-1.46565 -0.87395,-0.43697 -2.05736,0.43697 -2.9313,0 -0.43697,-0.21849 0.34545,-1.12019 0,-1.46565 -0.77247,-0.77246 -2.02234,-0.85968 -2.9313,-1.46565 -2.06111,0.98874 -1.28887,-2.75452 -1.46565,-2.9313 -1.81917,-1.81916 -4.77625,-0.3793 -5.86259,-1.46564 -0.34546,-0.34546 0.34545,-1.1202 0,-1.46565 -0.34546,-0.34546 -1.46565,-0.48855 -1.46565,0 0,1.28064 4.86094,-1.46565 0,-1.46565 -0.48855,0 0,0.9771 0,1.46565 0,4.60451 1.8526,7.4104 2.93129,11.72519 0.71906,2.8762 0.0681,8.11216 2.9313,10.25954 1.23595,0.92696 3.30452,0.37322 4.39695,1.46565 0.69091,0.69091 -0.43697,2.05735 0,2.9313 2.62618,5.25235 17.68976,10.73656 21.98473,13.19084 1.19976,0.68557 1.78155,2.16479 2.9313,2.93129 1.21949,0.813 3.00651,-0.46348 4.39695,0 0.89443,0.29815 3.50251,2.63316 4.39694,2.9313 1.91097,0.63699 3.95163,0.82866 5.8626,1.46565 1.67109,0.55703 2.68805,2.50407 4.39694,2.9313 1.42189,0.35547 2.95976,-0.28744 4.39695,0 2.41232,0.48246 6.50656,3.53919 8.79389,4.39694 11.38218,4.26832 8.02741,1.01923 17.58779,2.9313 3.48194,0.69639 4.03284,4.39695 10.25954,4.39695 3.66078,0 7.32825,1.56154 7.32825,1.46565 0,-1.09243 -1.89493,1.12019 -2.9313,1.46565 -2.98808,0.99602 -7.27146,0.46962 -10.25954,1.46564 -1.6711,0.55704 -2.76145,2.2771 -4.39695,2.9313 -8.96177,3.58471 -18.65668,4.02447 -27.84733,5.8626 -13.93953,2.7879 -35.42013,7.16521 -48.36641,-1.46565 -3.36713,-2.24476 0.62847,-0.83718 -2.9313,-4.39695 -0.22857,-0.22857 -4.16837,-2.70273 -4.39694,-2.9313 -0.69092,-0.69091 0.69091,-2.24038 0,-2.93129 -0.77247,-0.77247 -2.15884,-0.69319 -2.9313,-1.46565 -0.69092,-0.69092 0.9771,-2.9313 0,-2.9313 -1.08275,0 7.38364,7.61869 8.79389,8.79389 6.90561,5.75468 14.02078,13.60581 21.98473,17.58779 3.95808,1.97904 6.23628,5.31661 10.25955,7.32824 9.63713,4.81857 -0.80018,-1.27551 8.79389,1.46565 5.12185,1.46339 9.60156,5.64327 14.65649,7.32825 0.92695,0.30898 1.9542,0 2.93129,0 1.46565,0.48855 2.97694,0.85707 4.39695,1.46565 2.0082,0.86065 3.74297,2.40139 5.8626,2.93129 1.51993,0.37999 8.26463,-0.28498 10.25954,0 5.0088,0.71555 8.3778,3.43434 13.19084,4.39695 5.46947,1.09389 10.42167,1.46565 16.12214,1.46565 2.63984,0 14.35108,1.77105 16.12213,0 0.68001,-0.68001 0.54797,-3.73675 -1.46565,-2.9313 -7.88612,3.15445 -14.66785,9.00977 -21.98473,13.19084 -4.94674,2.82671 -9.91595,5.63353 -14.65649,8.79389 -1.14975,0.7665 -1.69535,2.31333 -2.93129,2.9313 -0.87395,0.43697 -2.00434,-0.30898 -2.9313,0 -3.22511,1.07504 -6.39455,3.84481 -10.25954,4.39695 -9.28671,1.32667 -19.95122,0 -29.31298,0 -5.81553,0 -21.78262,1.53302 -26.38168,0 -0.65546,-0.21849 -0.84768,-1.15666 -1.46565,-1.46565 -1.17252,-0.58626 -3.22443,0.58626 -4.39695,0 -0.61797,-0.30899 -0.81019,-1.24716 -1.46564,-1.46565 -0.92696,-0.30899 -2.11831,0.542 -2.9313,0 -0.90896,-0.60597 -0.69319,-2.15883 -1.46565,-2.9313 -2.68071,-2.68071 -10.20393,-5.83479 -13.19084,-7.32824 -1.85392,-0.92696 -2.67232,-3.2472 -4.39695,-4.39695 -0.4065,-0.271 -1.12019,0.34546 -1.46565,0 -0.90045,-0.90045 -0.96827,-3.41543 -2.93129,-4.39694 -0.43698,-0.21849 -1.1202,0.34545 -1.46565,0 -0.34546,-0.34546 0.21848,-1.02868 0,-1.46565 -0.82987,-1.65975 -4.30831,-4.8264 -5.8626,-5.8626 -0.94593,-0.63062 -5.22784,-2.29654 -5.86259,-2.9313 -0.6514,-0.6514 1.13995,-2.76844 -1.46565,-1.46565 -0.61797,0.30899 -0.9771,0.9771 -1.46565,1.46565 -1.46565,0 -2.97506,-0.35547 -4.39695,0 -2.82724,0.70681 -6.08456,5.97358 -8.79389,7.32825 -0.43697,0.21848 -1.12019,-0.34546 -1.46565,0 -0.77246,0.77246 -0.55669,2.32532 -1.46565,2.9313 -0.81299,0.54199 -2.00434,-0.30899 -2.9313,0 -1.92868,0.64289 -3.96804,3.58499 -5.86259,4.39694 -2.84003,1.21716 -5.95387,1.71414 -8.79389,2.9313 -5.02051,2.15165 -9.47464,5.60096 -14.65649,7.32824 -3.06057,1.02019 -7.38789,1.49547 -10.25955,2.9313 -0.61797,0.30899 -0.78815,1.33015 -1.46564,1.46565 -1.91625,0.38325 -3.92804,-0.27636 -5.8626,0 -3.72927,0.53275 -7.9865,2.30818 -11.72519,2.9313 -5.94193,0.99032 -23.11381,1.18338 -27.84733,0 -1.05981,-0.26496 -1.85373,-1.28606 -2.9313,-1.46565 -5.32885,-0.88814 -10.08583,0.81968 -14.65648,-1.46565 -0.61798,-0.30899 -0.84768,-1.15666 -1.46565,-1.46565 -2.93395,-1.46697 -10.99071,2.20014 -13.19084,0 -2.23742,-2.23741 2.07388,-3.00311 4.39694,-4.39694 2.36982,-1.42189 3.49279,-4.44071 5.8626,-5.8626 3.59315,-2.15589 9.44471,-3.98953 13.19084,-5.8626 3.5535,-1.77675 9.4481,-4.92691 13.19084,-5.86259 1.42189,-0.35547 2.95976,0.28744 4.39694,0 36.8056,-7.36112 -7.93826,1.0118 16.12214,-5.8626 1.40926,-0.40264 2.95124,0.24095 4.39695,0 6.47734,-1.07955 31.31404,-10.79496 35.17557,-14.65649 0.61417,-0.61417 1.02151,-3.50867 1.46565,-4.39694 0.30899,-0.61797 1.46565,-0.77474 1.46565,-1.46565 0,-1.54493 -3.30452,0.37322 -4.39695,1.46565 -0.34545,0.34546 0.46348,1.31115 0,1.46565 -1.39043,0.46348 -3.0498,-0.57735 -4.39694,0 -2.24524,0.96224 -3.57538,3.53924 -5.8626,4.39694 -1.82977,0.68617 -3.96674,-0.47396 -5.8626,0 -4.66799,1.167 -8.56431,4.54074 -13.19083,5.8626 -2.44304,0.69801 -6.51606,-1.13892 -8.7939,0 -7.69443,3.84722 -17.90648,-0.65315 -26.38168,1.46565 -0.67028,0.16757 -0.81019,1.24716 -1.46565,1.46565 -1.131,0.377 -19.27205,0.62351 -20.51908,0 -0.43697,-0.21849 0.34546,-1.1202 0,-1.46565 -1.03637,-1.03637 -2.97506,0.35547 -4.39695,0 -9.87223,-2.46806 -0.0226,-0.0226 -2.93129,-2.9313 -0.84949,-0.84949 -5.01311,-2.08181 -5.8626,-2.9313 -0.52924,-0.52924 2.42163,-3.22884 4.39695,-5.86259 4.40474,-5.87299 19.80599,-8.06765 26.38168,-10.25954 10.25253,-3.41752 22.27053,-7.45073 32.24427,-11.7252 5.98631,-2.56556 11.60192,-5.83177 17.58779,-7.32824 4.15903,-1.03976 8.21562,-5.57346 11.72519,-7.32824 6.09968,-3.04984 -1.56683,0.10118 1.46565,-2.9313 2.26902,-2.26902 6.1876,-3.90631 7.32824,-7.32825 0.30899,-0.92695 -0.43697,-2.05735 0,-2.93129 1.23594,-2.47189 4.3296,-3.5631 5.8626,-5.8626 0.27099,-0.4065 -0.34546,-1.12019 0,-1.46565 0.34545,-0.34545 1.12019,0.34546 1.46565,0 1.03637,-1.03637 0.65545,-3.08603 0,-4.39694 -1.17659,-2.35317 -4.8855,1.95419 -7.32825,2.93129 -1.65297,0.66119 -4.28514,-0.78872 -5.86259,0 -3.69167,1.84584 -7.24104,1.46565 -11.7252,1.46565 -4.72217,0 -8.49517,0.68304 -13.19083,1.46565 -10.72065,1.78677 -23.004,0 -33.70993,0 -4.33383,0 -11.72519,1.51579 -11.72519,1.46565 0,-4.51181 7.38727,-6.49607 10.25954,-8.79389 2.72241,-2.17793 9.23872,-7.77307 11.72519,-10.25955 0.77247,-0.77246 0.59171,-2.27583 1.46565,-2.93129 1.23595,-0.92696 3.16101,-0.53869 4.39695,-1.46565 0.87394,-0.65546 0.48855,-2.44275 1.46565,-2.9313 2.22813,-1.11406 5.36187,0.0637 7.32824,-1.46565 2.78088,-2.1629 3.0295,-6.69986 5.8626,-8.79389 0.61218,-0.45249 25.48929,-15.89499 35.17557,-21.34351"
           id="path605" />
      </g>
      <use
         x="0"
         y="0"
         xlink:href="#path2657"
         id="use609"
         style="display:inline" />
      <use
         x="0"
         y="0"
         xlink:href="#g587"
         id="use613"
         transform="translate(-209.3672,15.527129)"
         style="display:inline" />
      <use
         x="0"
         y="0"
         xlink:href="#g587"
         id="use615"
         transform="translate(-143.6901,-6.7184721)" />
      <use
         x="0"
         y="0"
         xlink:href="#use609"
         id="use619"
         style="display:inline" />
      <text
         xml:space="preserve"
         style="font-style:normal;font-variant:normal;font-weight:normal;font-stretch:normal;font-size:12px;font-family:'Blackadder ITC';-inkscape-font-specification:'Blackadder ITC, Normal';font-variant-ligatures:normal;font-variant-caps:normal;font-variant-numeric:normal;font-variant-east-asian:normal;white-space:pre;inline-size:142.392;fill:#008000;stroke-width:10;stroke-dasharray:none"
         x="381.0687"
         y="769.46564"
         id="text2321"
         transform="matrix(9.8092311,0,0,14.940031,-2776.6004,-11008.644)"
         inkscape:transform-center-x="10.365812"
         inkscape:transform-center-y="-237.24315"><tspan
           x="381.0687"
           y="769.46564"
           id="tspan369">Pacific Trails</tspan></text>
    </g>
  </g>
</svg>
